<?xml version="1.0" encoding="UTF-8"?>
<svg version="1.1" xmlns="http://www.w3.org/2000/svg" width="1536" height="1024">
<path d="M0 0 C506.88 0 1013.76 0 1536 0 C1536 337.92 1536 675.84 1536 1024 C1029.12 1024 522.24 1024 0 1024 C0 686.08 0 348.16 0 0 Z " fill="#FCFCFD" transform="translate(0,0)"/>
<path d="M0 0 C108.62465451 0 108.62465451 0 128 10 C129.44052734 10.72896484 129.44052734 10.72896484 130.91015625 11.47265625 C147.1534975 20.48557666 157.73236169 35.08116552 163.10546875 52.60546875 C166.49650549 66.74119509 165.01155605 83.48845183 160 97 C159.62617188 98.07378906 159.25234375 99.14757812 158.8671875 100.25390625 C155.84618071 108.2465699 151.54615402 114.21498587 145.73828125 120.4140625 C144.99964844 121.20554687 144.26101563 121.99703125 143.5 122.8125 C142.8090625 123.52019531 142.118125 124.22789062 141.40625 124.95703125 C139.76842394 126.85002491 139.76842394 126.85002491 140.2409668 128.87866211 C141.10005996 131.27964651 142.20863034 132.94484045 143.73828125 134.984375 C144.5883374 136.12749146 144.5883374 136.12749146 145.45556641 137.29370117 C146.37474854 138.50956909 146.37474854 138.50956909 147.3125 139.75 C147.94333496 140.59473877 148.57416992 141.43947754 149.22412109 142.30981445 C151.14363349 144.87760227 153.07137378 147.43905379 155 150 C156.05921017 151.41490333 157.11784773 152.8302356 158.17578125 154.24609375 C161.10986544 158.16958402 164.05394931 162.08549083 167 166 C170.55195763 170.72033541 174.10101811 175.44276253 177.63671875 180.17529297 C178.52375063 181.36255592 179.41172225 182.54911754 180.30078125 183.73486328 C181.45557963 185.27780222 182.6030521 186.82621648 183.75 188.375 C184.38421875 189.22835937 185.0184375 190.08171875 185.671875 190.9609375 C187 193 187 193 187 195 C179.76046298 195.41957759 172.52358832 195.73803508 165.27430248 195.93261909 C161.90608636 196.0261036 158.54624772 196.15236645 155.18286133 196.35791016 C133.40364246 197.59229448 133.40364246 197.59229448 127.72567749 193.26782227 C124.06419076 189.03415133 121.87214436 184.32785877 119.88885498 179.13394165 C118.65690691 176.17631037 116.89339977 173.77153976 114.9375 171.25 C114.31875 170.41210938 113.7 169.57421875 113.0625 168.7109375 C111.94426617 167.24113774 110.821037 165.77484875 109.671875 164.32910156 C100.21158507 152.41927227 100.21158507 152.41927227 100.75 147.0625 C101.3125 144.9609375 101.3125 144.9609375 102 143 C102.37125 141.1128125 102.37125 141.1128125 102.75 139.1875 C104.284808 135.27373959 105.42870775 134.20661451 109 132 C112.97250013 131.16971251 117.00722087 131.0777251 121.05078125 130.8671875 C126.16721899 130.49654792 129.39307757 130.02310579 133 126 C133.37674801 122.54647656 133.16313869 119.76131389 132.4375 116.375 C131.9212834 113.57268129 132.34187381 111.76412999 133 109 C133.165 107.845 133.33 106.69 133.5 105.5 C133.665 104.345 133.83 103.19 134 102 C134.0825 101.071875 134.165 100.14375 134.25 99.1875 C134.62125 98.1046875 134.62125 98.1046875 135 97 C136.66666667 96.33333333 138.33333333 95.66666667 140 95 C141.34107361 92.71242433 141.34107361 92.71242433 141 90 C139.17902523 87.79199672 139.17902523 87.79199672 137.61328125 86.45703125 C135.67062298 84.7025239 133.93591438 82.82282621 132.1875 80.875 C131.58292969 80.21242188 130.97835937 79.54984375 130.35546875 78.8671875 C129 77 129 77 129 74 C128.67 74 128.34 74 128 74 C128 72.35 128 70.7 128 69 C126.02 69.66 124.04 70.32 122 71 C122.495 69.515 122.495 69.515 123 68 C124.98 68 126.96 68 129 68 C128.17815928 60.75062891 126.9567959 54.94916347 123.0234375 48.7421875 C122 47 122 47 122 45 C123.32 45 124.64 45 126 45 C126.33 44.01 126.66 43.02 127 42 C127.66 41.67 128.32 41.34 129 41 C128.2575 40.278125 127.515 39.55625 126.75 38.8125 C124.30709485 36.31407427 122.1318953 33.76356798 120 31 C120.99 31 121.98 31 123 31 C123 30.34 123 29.68 123 29 C121.9171875 28.566875 121.9171875 28.566875 120.8125 28.125 C119.12234725 27.4489389 117.44204171 26.74611422 115.78515625 25.9921875 C112.39717205 24.78524783 109.19679995 24.4057217 105.625 24 C101.77060854 23.56039527 98.23660651 23.07055755 94.515625 21.9609375 C90.6693485 20.90962192 87.08342124 20.61832395 83.125 20.625 C82.42463623 20.62226074 81.72427246 20.61952148 81.00268555 20.61669922 C75.83689647 20.71361385 72.22898541 21.81854475 67.74609375 24.2421875 C66 25 66 25 63.375 24.25 C62.59125 23.8375 61.8075 23.425 61 23 C54.86532654 22.39856143 49.73822488 24.06031835 44 26 C44 26.66 44 27.32 44 28 C45.32 28.33 46.64 28.66 48 29 C45 31 45 31 42.125 30.9375 C38.527853 31.00944294 36.89769046 31.95457144 34 34 C34.99 34.66 35.98 35.32 37 36 C36.18595703 36.63615234 36.18595703 36.63615234 35.35546875 37.28515625 C30.71307258 41.09108464 27.61958532 44.02777914 26 50 C25.86458512 52.60872787 25.87064232 55.15645511 25.9921875 57.765625 C26 60 26 60 25 63 C24.12470109 75.64910855 24.12470109 75.64910855 28.125 87.43359375 C29 89 29 89 29 91 C30.32 91.33 31.64 91.66 33 92 C36.44419134 103.52164009 36.44419134 103.52164009 36 109 C37.98 108.01 37.98 108.01 40 107 C40 110 40 113 40 116 C41.175625 115.690625 41.175625 115.690625 42.375 115.375 C43.674375 115.189375 43.674375 115.189375 45 115 C45.99 115.99 45.99 115.99 47 117 C46.625 120.625 46.625 120.625 46 124 C48.31 124 50.62 124 53 124 C53 123.34 53 122.68 53 122 C53.66 122 54.32 122 55 122 C56.59639377 127.71436408 55.12302893 131.35403162 53 136.625 C52.40673847 138.11326815 51.82300643 139.60537904 51.25 141.1015625 C50.85554688 142.08116943 50.85554688 142.08116943 50.453125 143.08056641 C49.5260598 147.00760659 51.38687898 149.96277493 53.30078125 153.31640625 C53.77789551 154.15445801 54.25500977 154.99250977 54.74658203 155.85595703 C55.52171143 157.1956958 55.52171143 157.1956958 56.3125 158.5625 C56.84214355 159.48401855 57.37178711 160.40553711 57.91748047 161.35498047 C63.95035389 171.76893261 70.3238974 181.9858461 77 192 C77 192.99 77 193.98 77 195 C51.59 195 26.18 195 0 195 C0 130.65 0 66.3 0 0 Z " fill="#073E67" transform="translate(289,376)"/>
<path d="M0 0 C115.53572952 0 115.53572952 0 138.79296875 22.6015625 C151.84922874 36.7901353 157.7346077 52.92427 157.30078125 71.921875 C156.37703051 91.8870555 148.56592755 108.4104956 134.50390625 122.4609375 C131.9077314 124.93335436 131.9077314 124.93335436 130 128 C130.556875 128.60585938 131.11375 129.21171875 131.6875 129.8359375 C136.26238226 134.85903458 140.63411407 139.97018345 144.83984375 145.3046875 C147.31817195 148.39699574 149.8690856 151.42000022 152.4375 154.4375 C156.58901447 159.31761274 160.67692172 164.24310208 164.71875 169.21484375 C166.39406094 171.26021482 168.07979845 173.29301108 169.78125 175.31640625 C170.2445874 175.86804443 170.7079248 176.41968262 171.18530273 176.98803711 C172.49796344 178.54829061 173.81336479 180.10623715 175.12890625 181.6640625 C177 184 177 184 177 185 C169.29604704 185.25400875 161.59317626 185.42885392 153.88598633 185.54931641 C151.26578424 185.59953978 148.6458615 185.66773478 146.02661133 185.75439453 C142.25532169 185.87602596 138.48773981 185.93247506 134.71484375 185.9765625 C133.54791489 186.02817535 132.38098602 186.07978821 131.17869568 186.13296509 C123.18845177 186.1384485 123.18845177 186.1384485 119.75402832 182.848526 C117.95864403 180.3035603 116.46217764 177.74688264 115 175 C114.09360982 173.64785362 113.17259659 172.30518099 112.2265625 170.98046875 C110.89027856 169.03548071 109.55747432 167.0882851 108.22973633 165.13745117 C105.95104518 161.79790226 103.64499352 158.49506921 101.22265625 155.2578125 C100.79452637 154.67491455 100.36639648 154.0920166 99.92529297 153.49145508 C98.75812463 151.90829597 97.57296921 150.33844315 96.38671875 148.76953125 C95 146 95 146 95.5078125 143.51171875 C97.90479468 139.47700791 100.65699002 135.728406 103.41796875 131.9375 C105.24091508 129.16048181 105.24091508 129.16048181 104.86328125 126.3125 C104.01803705 123.77932718 104.01803705 123.77932718 102 121 C102 119.68 102 118.36 102 117 C102.66 117 103.32 117 104 117 C104 117.66 104 118.32 104 119 C112.07755187 118.73052731 112.07755187 118.73052731 119 115 C119.73323796 112.98491642 119.73323796 112.98491642 120 111 C120.66 110.34 121.32 109.68 122 109 C121.05125 109.061875 120.1025 109.12375 119.125 109.1875 C118.09375 109.125625 117.0625 109.06375 116 109 C113.44998415 105.17497622 113.79200638 103.33304568 114.3125 98.90234375 C115.36766382 94.44787374 117.43272225 90.65864552 119.625 86.6640625 C122.79006906 80.53174119 122.25620387 74.13804209 122.3125 67.375 C122.34150391 66.23675781 122.37050781 65.09851563 122.40039062 63.92578125 C122.48834017 52.14054169 119.06402203 43.61135384 111 35 C108.29924347 32.95796457 106.29549449 32.08801964 103.0625 31.125 C99.91747505 29.96968471 98.09863892 28.41766165 95.60946655 26.23138428 C90.01266135 21.94933324 83.64091902 21.56689167 76.8984375 21.671875 C76.05834137 21.67374817 75.21824524 21.67562134 74.35269165 21.67755127 C72.58957912 21.68423058 70.82648036 21.69806202 69.06347656 21.71875 C66.37550961 21.74999408 63.68813094 21.75973858 61 21.765625 C59.27863873 21.77479364 57.55728338 21.78516896 55.8359375 21.796875 C54.64041763 21.80324982 54.64041763 21.80324982 53.42074585 21.80975342 C49.1779595 21.86377712 45.17899222 22.16803626 41 23 C41 22.01 41 21.02 41 20 C39.8944811 20.93590504 38.79064547 21.87379858 37.6875 22.8125 C37.07261719 23.33457031 36.45773437 23.85664063 35.82421875 24.39453125 C34.14575321 25.87172469 32.56117966 27.40039131 31 29 C30.34 28.34 29.68 27.68 29 27 C27.00499552 31.07282046 26.95993453 33.73068696 27.5625 38.1875 C28.11906015 43.73434106 27.49066616 47.47163173 25.640625 52.66015625 C24.29534033 57.57372648 25.57784289 62.48095602 26.9140625 67.2890625 C27.03775373 72.63027468 24.58465174 74.85247218 21.125 78.6875 C19.99686384 79.97807754 18.87423439 81.27349443 17.7578125 82.57421875 C17.2539502 83.13713623 16.75008789 83.70005371 16.23095703 84.2800293 C14.8733243 86.17699926 14.41796435 87.72175171 14 90 C16.93828597 92.50298434 19.17902761 93.46930939 23 94 C22.649375 94.7425 22.29875 95.485 21.9375 96.25 C20.94473934 99.16209794 20.8458029 100.21069033 22 103 C22.66 103.66 23.32 104.32 24 105 C23.34 106.32 22.68 107.64 22 109 C22.66 109 23.32 109 24 109 C24.38218767 110.65614657 24.71395102 112.32457024 25 114 C24.67 114.33 24.34 114.66 24 115 C23.69679167 120.13579573 23.69679167 120.13579573 25 125 C29.79605157 127.45294241 34.93790399 127.69238253 40.20507812 128.2109375 C47.03951012 128.95534512 47.03951012 128.95534512 50 131 C52.10615013 134.15922519 52.26171367 135.08554905 52.38671875 138.71875 C52.96209188 150.07027956 53.65091709 157.95597015 61 167 C62.50027089 169.09943896 63.96406944 171.22114314 65.42211914 173.35009766 C66.41921559 174.80582313 67.42599865 176.25496882 68.44311523 177.69677734 C72 182.77626494 72 182.77626494 72 185 C48.24 185 24.48 185 0 185 C0 123.95 0 62.9 0 0 Z " fill="#063D67" transform="translate(871,386)"/>
<path d="M0 0 C6.6 0 13.2 0 20 0 C20.33 14.52 20.66 29.04 21 44 C23.97 41.36 26.94 38.72 30 36 C39.14650025 32.57006241 46.93034446 32.15802329 56.015625 35.9375 C62.57875458 39.45161663 66.11966742 43.31279756 68.37409973 50.34613037 C69.50577537 55.14453 69.36550145 59.91071883 69.29296875 64.81640625 C69.28872391 65.91347397 69.28447906 67.01054169 69.28010559 68.14085388 C69.26342927 71.61499478 69.22579717 75.08853699 69.1875 78.5625 C69.17243891 80.93033011 69.15875301 83.2981694 69.14648438 85.66601562 C69.11356187 91.44423804 69.06185597 97.22201782 69 103 C62.4 103 55.8 103 49 103 C48.97421875 99.73738281 48.9484375 96.47476563 48.921875 93.11328125 C48.88344926 89.9492128 48.8382906 86.78530702 48.79248047 83.62133789 C48.7642761 81.42447694 48.74305893 79.22751461 48.72900391 77.03051758 C48.70756751 73.8700777 48.6609122 70.71085604 48.609375 67.55078125 C48.60814636 66.57039383 48.60691772 65.59000641 48.60565186 64.57991028 C48.51296399 60.25271736 48.41426558 57.68455921 46.13769531 53.92260742 C42.57553192 50.71885722 39.24114562 50.1353977 34.5625 49.625 C30.35056587 50.06836149 27.13898194 51.09411078 24 54 C20.62698021 59.31104752 20.53107145 63.90100828 20.48828125 69.9921875 C20.47033005 70.93812775 20.45237885 71.88406799 20.43388367 72.8586731 C20.37993363 75.86407079 20.34593396 78.86931104 20.3125 81.875 C20.27931343 83.91929267 20.24482253 85.9635646 20.20898438 88.0078125 C20.12177297 93.00522908 20.06157339 98.00193935 20 103 C13.4 103 6.8 103 0 103 C0 69.01 0 35.02 0 0 Z " fill="#073D67" transform="translate(1123,429)"/>
<path d="M0 0 C5.78110889 4.84704326 8.46717456 11.23624575 9.29672241 18.65286255 C9.4390439 21.56444961 9.49315704 24.46392831 9.51171875 27.37890625 C9.52966995 28.43158188 9.54762115 29.48425751 9.56611633 30.5688324 C9.61989126 33.90001532 9.65400969 37.23105769 9.6875 40.5625 C9.72070202 42.8340038 9.75519431 45.10548912 9.79101562 47.37695312 C9.87559889 52.91786678 9.94256612 58.45874112 10 64 C4.06 64 -1.88 64 -8 64 C-8.99 61.36 -9.98 58.72 -11 56 C-12.010625 56.928125 -13.02125 57.85625 -14.0625 58.8125 C-20.7152816 64.51104424 -28.01052867 66.33374713 -36.6640625 66.21875 C-42.81254683 65.6429722 -48.21377106 62.80722757 -53 59 C-57.93326394 52.46675856 -58.80748251 47.02868328 -58 39 C-54.65271972 31.9037658 -48.76318193 27.4500885 -41.5625 24.6875 C-34.16235051 22.07373632 -26.75418999 21.85014777 -19 21.9375 C-18.22527344 21.94201172 -17.45054687 21.94652344 -16.65234375 21.95117188 C-14.76819476 21.96280242 -12.88408635 21.98073094 -11 22 C-11.75818862 15.12097006 -11.75818862 15.12097006 -15.3125 9.375 C-25.28040465 5.6581542 -34.45117193 8.3699875 -44 12 C-45.32726156 12.35674309 -46.65873154 12.70018705 -48 13 C-48.83819158 11.37750059 -49.6704116 9.75191503 -50.5 8.125 C-50.9640625 7.22007812 -51.428125 6.31515625 -51.90625 5.3828125 C-53 3 -53 3 -53 1 C-36.29641535 -6.16258458 -16.49020255 -10.10893643 0 0 Z " fill="#09416C" transform="translate(830,468)"/>
<path d="M0 0 C6.94557358 4.8517936 10.60422145 11.30560951 12.87890625 19.3125 C12.87890625 24.5925 12.87890625 29.8725 12.87890625 35.3125 C-3.95109375 35.3125 -20.78109375 35.3125 -38.12109375 35.3125 C-35.40185417 43.86941996 -35.40185417 43.86941996 -29.99609375 48.875 C-28.97128906 49.55755859 -28.97128906 49.55755859 -27.92578125 50.25390625 C-21.91271372 53.78105192 -12.82580545 53.46286838 -6.09619141 51.81738281 C-2.31552843 50.59521467 1.29938602 49.02870833 4.87890625 47.3125 C5.72004796 48.74544498 6.55156312 50.18404405 7.37890625 51.625 C8.075 52.82576172 8.075 52.82576172 8.78515625 54.05078125 C9.87890625 56.3125 9.87890625 56.3125 9.87890625 59.3125 C8.38456202 60.11479137 6.88304153 60.90371867 5.37890625 61.6875 C4.54359375 62.12835937 3.70828125 62.56921875 2.84765625 63.0234375 C-4.09153578 66.03650772 -10.52500918 66.674021 -17.99609375 66.625 C-18.87942383 66.62008545 -19.76275391 66.6151709 -20.67285156 66.61010742 C-31.34156234 66.41797604 -40.04717376 63.87715472 -48.03125 56.5625 C-55.86016711 48.31803528 -57.72806354 40.00914414 -57.59179688 28.93066406 C-57.22662066 19.66528889 -54.51939035 12.90251987 -48.1015625 6.12890625 C-34.91101699 -5.96893135 -16.0099448 -8.79738381 0 0 Z " fill="#083F69" transform="translate(521.12109375,466.6875)"/>
<path d="M0 0 C6.93 0 13.86 0 21 0 C21.02578125 3.32320313 21.0515625 6.64640625 21.078125 10.0703125 C21.11656354 13.29728582 21.1617181 16.52410034 21.20751953 19.75097656 C21.23570362 21.98950591 21.25693086 24.2281343 21.27099609 26.46679688 C21.29246048 29.68931694 21.3391306 32.91064938 21.390625 36.1328125 C21.39185364 37.12991241 21.39308228 38.12701233 21.39434814 39.15432739 C21.51790952 45.04785153 22.06836248 48.50998532 26 53 C30.19126273 55.09563136 35.43563998 54.41168737 40 54 C44.45001806 52.12630819 45.61154097 50.84703616 47.62036133 46.46679688 C49.32387131 41.65883949 49.47485311 37.09331721 49.51171875 32.03125 C49.52966995 31.11033569 49.54762115 30.18942139 49.56611633 29.24060059 C49.61988015 26.3271123 49.65400545 23.4137846 49.6875 20.5 C49.72070307 18.51299865 49.75519546 16.5260184 49.79101562 14.5390625 C49.87799143 9.69268956 49.93834925 4.84702447 50 0 C56.6 0 63.2 0 70 0 C70 22.44 70 44.88 70 68 C64.06 68 58.12 68 52 68 C51.67 64.7 51.34 61.4 51 58 C50.360625 58.886875 49.72125 59.77375 49.0625 60.6875 C44.71812186 65.91065548 38.67950898 69.01979974 32 70 C22.96836174 70.64778647 16.3664027 69.91093513 8.8125 64.875 C3.2109127 59.79377873 0.67438178 53.3927921 0 46 C-0.12763579 42.41709235 -0.11672935 38.83870001 -0.09765625 35.25390625 C-0.0962413 34.24279282 -0.09482635 33.23167938 -0.09336853 32.18992615 C-0.08779961 28.98075319 -0.07525287 25.77165164 -0.0625 22.5625 C-0.05748098 20.37825622 -0.05291878 18.19401134 -0.04882812 16.00976562 C-0.03869399 10.67312786 -0.01911253 5.33664327 0 0 Z " fill="#0B406A" transform="translate(1038,464)"/>
<path d="M0 0 C5.71657821 4.80395375 9.28051058 10.58508688 10.02157593 18.12402344 C10.10724799 21.15367243 10.09927532 24.16869673 10.0546875 27.19921875 C10.05044266 28.29770142 10.04619781 29.39618408 10.04182434 30.5279541 C10.02512536 34.01238235 9.98748871 37.49621736 9.94921875 40.98046875 C9.9341606 43.35285619 9.92047418 45.72525276 9.90820312 48.09765625 C9.87525048 53.89215323 9.8235284 59.68621064 9.76171875 65.48046875 C3.49171875 65.48046875 -2.77828125 65.48046875 -9.23828125 65.48046875 C-9.27566406 62.54140625 -9.31304688 59.60234375 -9.3515625 56.57421875 C-9.39785683 53.70793482 -9.4490617 50.8417774 -9.50073242 47.97558594 C-9.53385765 45.99324315 -9.56192769 44.01080886 -9.5847168 42.02832031 C-9.61849179 39.16822546 -9.67081813 36.30895983 -9.7265625 33.44921875 C-9.73295242 32.5718103 -9.73934235 31.69440186 -9.7459259 30.79040527 C-9.89404146 24.5028603 -10.61108641 18.32753612 -15.05859375 13.5078125 C-19.53687983 11.3970791 -24.42321959 11.90111641 -29.23828125 12.48046875 C-32.71936195 14.10097183 -34.49598379 15.14972539 -36.36083984 18.49291992 C-37.64022299 22.84901663 -37.59660881 27.07443318 -37.65234375 31.59375 C-37.6717099 32.56330124 -37.69107605 33.53285248 -37.71102905 34.53178406 C-37.77065561 37.61875703 -37.81714265 40.70576763 -37.86328125 43.79296875 C-37.90147659 45.88998993 -37.94052923 47.98699569 -37.98046875 50.08398438 C-38.07795186 55.21606411 -38.15765523 60.34798584 -38.23828125 65.48046875 C-44.83828125 65.48046875 -51.43828125 65.48046875 -58.23828125 65.48046875 C-58.23828125 43.04046875 -58.23828125 20.60046875 -58.23828125 -2.51953125 C-52.62828125 -2.51953125 -47.01828125 -2.51953125 -41.23828125 -2.51953125 C-40.57828125 0.78046875 -39.91828125 4.08046875 -39.23828125 7.48046875 C-38.53703125 6.57296875 -37.83578125 5.66546875 -37.11328125 4.73046875 C-28.73760155 -5.27775869 -10.88353464 -7.40080355 0 0 Z " fill="#073F69" transform="translate(640.23828125,466.51953125)"/>
<path d="M0 0 C7.26 0 14.52 0 22 0 C27.67562614 13.24312766 32.84595671 26.67758239 36.9375 40.5 C37.14890625 41.2118042 37.3603125 41.9236084 37.578125 42.65698242 C38.40623538 45.54022899 39 47.98373031 39 51 C39.66 51 40.32 51 41 51 C41.11625732 49.83774902 41.23251465 48.67549805 41.35229492 47.47802734 C41.88183202 43.2684299 42.98797924 39.35695447 44.36328125 35.3515625 C44.5965361 34.65412933 44.82979095 33.95669617 45.07011414 33.23812866 C45.56167549 31.77311959 46.05682534 30.30931006 46.55541992 28.84667969 C47.30738777 26.64000204 48.04819769 24.4298295 48.78710938 22.21875 C51.30876211 14.714894 53.96299699 7.31477686 57 0 C63.6 0 70.2 0 77 0 C76.15320522 4.23397392 75.11159142 7.42544153 73.4453125 11.35546875 C73.05904694 12.27203751 73.05904694 12.27203751 72.66497803 13.2071228 C71.82279986 15.20251121 70.97401521 17.19501224 70.125 19.1875 C69.53882311 20.57201405 68.9530527 21.95670026 68.36767578 23.34155273 C67.17003191 26.17305738 65.96977271 29.00343246 64.76757812 31.83300781 C63.10130182 35.75714993 61.44746016 39.68642499 59.796875 43.6171875 C58.82302781 45.93233842 57.84907506 48.24744494 56.875 50.5625 C56.42656738 51.63072998 55.97813477 52.69895996 55.51611328 53.79956055 C54.88552002 55.29289917 54.88552002 55.29289917 54.2421875 56.81640625 C53.8797998 57.67693604 53.51741211 58.53746582 53.14404297 59.42407227 C51.85536148 62.32566816 50.41985624 65.16028752 49 68 C42.4 68 35.8 68 29 68 C28.35675781 66.47117187 27.71351563 64.94234375 27.05078125 63.3671875 C20.7064108 48.31595333 14.25993553 33.31222916 7.75 18.33203125 C7.26789062 17.21908691 6.78578125 16.10614258 6.2890625 14.95947266 C5.52257545 13.19974615 4.7491351 11.4429809 3.9609375 9.69287109 C2.71559658 6.90903949 2 5.09642111 2 2 C1.34 2 0.68 2 0 2 C0 1.34 0 0.68 0 0 Z " fill="#09406A" transform="translate(654,464)"/>
<path d="M0 0 C0 5.94 0 11.88 0 18 C-1.670625 17.95875 -3.34125 17.9175 -5.0625 17.875 C-11.30917988 17.89905653 -15.96270285 18.27272633 -20.875 22.4375 C-23.55731582 25.67205731 -24.11761218 28.03199425 -24.20532227 32.10424805 C-24.22526749 32.92487228 -24.24521271 33.74549652 -24.26576233 34.59098816 C-24.29083107 35.9129998 -24.29083107 35.9129998 -24.31640625 37.26171875 C-24.33718735 38.16751175 -24.35796844 39.07330475 -24.37937927 40.00654602 C-24.44476558 42.90012016 -24.50370904 45.79378507 -24.5625 48.6875 C-24.6056956 50.64909793 -24.64931023 52.61068668 -24.69335938 54.57226562 C-24.80122443 59.38141874 -24.90037907 64.19064073 -25 69 C-31.6 69 -38.2 69 -45 69 C-45 46.89 -45 24.78 -45 2 C-39.39 2 -33.78 2 -28 2 C-27.34 5.63 -26.68 9.26 -26 13 C-25.46375 12.113125 -24.9275 11.22625 -24.375 10.3125 C-18.05181631 0.89451866 -10.57729988 -0.28587297 0 0 Z " fill="#063C66" transform="translate(1253,463)"/>
<path d="M0 0 C6.6 0 13.2 0 20 0 C20 22.44 20 44.88 20 68 C13.4 68 6.8 68 0 68 C0 45.56 0 23.12 0 0 Z " fill="#073E68" transform="translate(740,464)"/>
<path d="M0 0 C6.6 0 13.2 0 20 0 C20 22.44 20 44.88 20 68 C13.4 68 6.8 68 0 68 C0 45.56 0 23.12 0 0 Z " fill="#083C66" transform="translate(547,464)"/>
<path d="M0 0 C1.26650391 0.00966797 1.26650391 0.00966797 2.55859375 0.01953125 C3.43128906 0.03628906 4.30398438 0.05304688 5.203125 0.0703125 C6.53537109 0.08384766 6.53537109 0.08384766 7.89453125 0.09765625 C10.08100558 0.12116673 12.26692594 0.15402751 14.453125 0.1953125 C14.80573921 5.15150111 15.0168577 9.02448304 12.828125 13.5703125 C9.24503234 17.53057281 6.81898004 19.87648821 1.3515625 20.61328125 C-3.81090922 20.8288698 -7.37667009 20.90185131 -11.859375 18.1953125 C-14.01302418 14.36660284 -14.64147274 11.48683063 -13.546875 7.1953125 C-9.79456456 2.4006936 -6.09853597 -0.08241265 0 0 Z " fill="#F7F9FA" transform="translate(804.546875,500.8046875)"/>
<path d="M0 0 C3.05225296 3.88468558 2 6.51616537 2 12 C-8.89 12 -19.78 12 -31 12 C-29.86633861 5.19803164 -28.46500255 1.94053392 -23.0625 -2.3125 C-15.33672625 -6.569559 -6.75313633 -5.76487248 0 0 Z " fill="#F7F9FB" transform="translate(514,479)"/>
<path d="M0 0 C3.02789528 1.80204962 4.63234406 3.76143809 6 7 C6.44087585 10.27587502 6.12246783 12.8943118 5 16 C2.43464804 19.24044458 0.913195 20.69560167 -3 22 C-7.21234945 22.39739146 -9.5099628 22.24964159 -13.3125 20.3125 C-17.03629784 17.10830186 -17.72904714 14.81925489 -18.4375 10.0625 C-17.81731894 5.72123258 -16.04686605 4.11941048 -13 1 C-8.97440826 -1.01279587 -4.35554827 -0.72796383 0 0 Z " fill="#0A4069" transform="translate(755,427)"/>
<path d="M0 0 C3.41311667 2.52570633 4.66637768 3.99913304 6 8 C6.38304369 12.13687181 6.46657659 14.27600184 4.1875 17.8125 C1.10531238 20.89468762 -0.98879813 22.31055193 -5.3125 22.4375 C-8.82659505 22.3744412 -10.77477223 21.8619303 -13.5 19.625 C-17.17602271 15.76517615 -17.33448933 13.41857442 -17.29296875 8.26171875 C-16.86344199 4.9457722 -15.39075646 3.25012373 -13 1 C-9.04352612 -0.97823694 -4.3017582 -0.56487734 0 0 Z " fill="#0A3F68" transform="translate(562,427)"/>
<path d="M0 0 C0.495 1.98 0.495 1.98 1 4 C1.66 2.68 2.32 1.36 3 0 C3.089757 3.23125193 2.83518936 5.89123961 2 9 C1.82339844 9.70640625 1.64679688 10.4128125 1.46484375 11.140625 C0.9765625 13.09375 0.48828125 15.046875 0 17 C-1.65 17.33 -3.3 17.66 -5 18 C-7 15 -7 15 -8 8 C-19.88 7.67 -31.76 7.34 -44 7 C-44 6.67 -44 6.34 -44 6 C-32.12 6 -20.24 6 -8 6 C-7.67 4.68 -7.34 3.36 -7 2 C-4 0 -4 0 0 0 Z " fill="#D9E3EB" transform="translate(417,445)"/>
<path d="M0 0 C0.33 0 0.66 0 1 0 C1.12117188 0.90363281 1.24234375 1.80726563 1.3671875 2.73828125 C1.61855469 4.50751953 1.61855469 4.50751953 1.875 6.3125 C2.11863281 8.07013672 2.11863281 8.07013672 2.3671875 9.86328125 C2.82300621 13.14530895 2.82300621 13.14530895 5 16 C4.01 16 3.02 16 2 16 C0 13 0 13 -1 6 C-12.88 5.67 -24.76 5.34 -37 5 C-37 4.67 -37 4.34 -37 4 C-25.12 4 -13.24 4 -1 4 C-0.67 2.68 -0.34 1.36 0 0 Z " fill="#2E5C80" transform="translate(410,447)"/>
<path d="M0 0 C-1.38188453 3.21043882 -2.92421903 5.04936365 -5.625 7.25 C-6.57246094 8.03117187 -6.57246094 8.03117187 -7.5390625 8.828125 C-8.02117187 9.21484375 -8.50328125 9.6015625 -9 10 C-8.42110619 6.71245489 -7.45171589 5.06327505 -5.0625 2.75 C-4.53785156 2.22921875 -4.01320313 1.7084375 -3.47265625 1.171875 C-2 0 -2 0 0 0 Z " fill="#0F436E" transform="translate(479,469)"/>
<path d="M0 0 C0.66 0 1.32 0 2 0 C2.33 1.32 2.66 2.64 3 4 C2.2575 4.12375 1.515 4.2475 0.75 4.375 C-1.81448542 4.9578376 -3.69166512 5.78664449 -6 7 C-5.04882866 5.8274869 -4.08882991 4.66212985 -3.125 3.5 C-2.59132813 2.8503125 -2.05765625 2.200625 -1.5078125 1.53125 C-0.76144531 0.77328125 -0.76144531 0.77328125 0 0 Z " fill="#B7CBDC" transform="translate(910,406)"/>
<path d="M0 0 C0.66 0 1.32 0 2 0 C2 0.66 2 1.32 2 2 C4.64 2 7.28 2 10 2 C10 2.33 10 2.66 10 3 C7.69 3 5.38 3 3 3 C3 3.66 3 4.32 3 5 C2.01 4.67 1.02 4.34 0 4 C0 2.68 0 1.36 0 0 Z " fill="#497393" transform="translate(973,503)"/>
</svg>
